<?xml version="1.0" encoding="UTF-8" standalone="no"?>
<svg
   xmlns:dc="http://purl.org/dc/elements/1.1/"
   xmlns:cc="http://creativecommons.org/ns#"
   xmlns:rdf="http://www.w3.org/1999/02/22-rdf-syntax-ns#"
   xmlns:svg="http://www.w3.org/2000/svg"
   xmlns="http://www.w3.org/2000/svg"
   height="16"
   id="svg7384"
   version="1.1"
   width="16">
  <metadata
     id="metadata90">
    <rdf:RDF>
      <cc:Work
         rdf:about="">
        <dc:format>image/svg+xml</dc:format>
        <dc:type
           rdf:resource="http://purl.org/dc/dcmitype/StillImage" />
        <dc:title>elementary Symbolic Icon Theme</dc:title>
      </cc:Work>
    </rdf:RDF>
  </metadata>
  <title
     id="title9167">elementary Symbolic Icon Theme</title>
  <defs
     id="defs7386">
    <filter
       color-interpolation-filters="sRGB"
       id="filter7554">
      <feBlend
         id="feBlend7556"
         in2="BackgroundImage"
         mode="darken" />
    </filter>
    <filter
       color-interpolation-filters="sRGB"
       id="filter7554-7">
      <feBlend
         id="feBlend7556-6"
         in2="BackgroundImage"
         mode="darken" />
    </filter>
  </defs>
  <g
     id="layer9"
     label="status"
     style="display:inline"
     transform="translate(-473.0004,-28)" />
  <g
     id="layer10"
     style="display:inline"
     transform="translate(-473.0004,-28)" />
  <g
     id="layer13"
     style="display:inline"
     transform="translate(-473.0004,-28)" />
  <g
     id="layer14"
     transform="translate(-473.0004,-28)" />
  <g
     id="layer15"
     style="display:inline"
     transform="translate(-473.0004,-28)" />
  <g
     id="g71291"
     style="display:inline"
     transform="translate(-473.0004,-28)" />
  <g
     id="layer12"
     style="display:inline"
     transform="translate(-473.0004,-28)">
    <path
       d="m 477.88188,32.008292 c -0.22524,0 -0.45186,0.07763 -0.62371,0.249482 -0.34369,0.343699 -0.34369,0.90371 0,1.247409 L 479.75299,36 l -2.49482,2.494817 c -0.34369,0.3437 -0.34369,0.903709 0,1.247409 0.3437,0.343698 0.90371,0.343698 1.24741,0 l 2.49482,-2.494818 2.49482,2.494818 c 0.3437,0.343698 0.90371,0.343698 1.24741,0 0.34369,-0.3437 0.34369,-0.903709 0,-1.247409 L 482.24781,36 l 2.49482,-2.494817 c 0.34369,-0.343699 0.34369,-0.90371 0,-1.247409 -0.3437,-0.343699 -0.90371,-0.343699 -1.24741,0 l -2.49482,2.494817 -2.49482,-2.494817 c -0.17185,-0.171849 -0.39847,-0.249482 -0.6237,-0.249482 z"
       id="path28154"
       style="color:#bebebe;fill:#bebebe;fill-opacity:1;fill-rule:nonzero;stroke:none;stroke-width:1;marker:none;visibility:visible;display:inline;overflow:visible;enable-background:accumulate" />
  </g>
</svg>
