<?xml version="1.0" encoding="UTF-8" standalone="no"?>
<svg
   xmlns:dc="http://purl.org/dc/elements/1.1/"
   xmlns:cc="http://creativecommons.org/ns#"
   xmlns:rdf="http://www.w3.org/1999/02/22-rdf-syntax-ns#"
   xmlns:svg="http://www.w3.org/2000/svg"
   xmlns="http://www.w3.org/2000/svg"
   xmlns:sodipodi="http://sodipodi.sourceforge.net/DTD/sodipodi-0.dtd"
   xmlns:inkscape="http://www.inkscape.org/namespaces/inkscape"
   height="16"
   id="svg7384"
   version="1.1"
   width="16"
   inkscape:version="0.91 r13725"
   sodipodi:docname="bookworm-view-grid-symbolic.svg">
  <sodipodi:namedview
     pagecolor="#ffffff"
     bordercolor="#666666"
     borderopacity="1"
     objecttolerance="10"
     gridtolerance="10"
     guidetolerance="10"
     inkscape:pageopacity="0"
     inkscape:pageshadow="2"
     inkscape:window-width="650"
     inkscape:window-height="480"
     id="namedview18"
     showgrid="false"
     inkscape:zoom="14.75"
     inkscape:cx="8"
     inkscape:cy="8"
     inkscape:window-x="0"
     inkscape:window-y="30"
     inkscape:window-maximized="0"
     inkscape:current-layer="svg7384" />
  <metadata
     id="metadata90">
    <rdf:RDF>
      <cc:Work
         rdf:about="">
        <dc:format>image/svg+xml</dc:format>
        <dc:type
           rdf:resource="http://purl.org/dc/dcmitype/StillImage" />
        <dc:title>elementary Symbolic Icon Theme</dc:title>
      </cc:Work>
    </rdf:RDF>
  </metadata>
  <title
     id="title9167">elementary Symbolic Icon Theme</title>
  <defs
     id="defs7386">
    <filter
       color-interpolation-filters="sRGB"
       id="filter7554">
      <feBlend
         id="feBlend7556"
         in2="BackgroundImage"
         mode="darken" />
    </filter>
    <filter
       color-interpolation-filters="sRGB"
       id="filter7554-7">
      <feBlend
         id="feBlend7556-6"
         in2="BackgroundImage"
         mode="darken" />
    </filter>
  </defs>
  <g
     id="layer9"
     label="status"
     style="display:inline"
     transform="translate(-293.00061,-88)" />
  <g
     id="layer10"
     style="display:inline"
     transform="translate(-293.00061,-88)" />
  <g
     id="layer13"
     style="display:inline"
     transform="translate(-293.00061,-88)" />
  <g
     id="layer14"
     transform="translate(-293.00061,-88)" />
  <g
     id="layer15"
     style="display:inline"
     transform="translate(-293.00061,-88)" />
  <g
     id="g71291"
     style="display:inline"
     transform="translate(-293.00061,-88)" />
  <g
     id="layer12"
     style="display:inline;fill:#000000;fill-opacity:1"
     transform="translate(-293.00061,-88)">
    <path
       d="m 295.0002,90 0,4 4,0 0,-4 z m 8,0 0,4 4,0 0,-4 z m -7,1 2,0 0,2 -2,0 z m 8,0 2,0 0,2 -2,0 z m -9,7 0,4 4,0 0,-4 z m 8,0 0,4 4,0 0,-4 z m -7,1 2,0 0,2 -2,0 z m 8,0 2,0 0,2 -2,0 z"
       id="rect2999"
       style="opacity:0.7;color:#bebebe;fill:#000000;fill-opacity:1;fill-rule:nonzero;stroke:none;stroke-width:1;marker:none;visibility:visible;display:inline;overflow:visible;enable-background:accumulate" />
  </g>
</svg>
